<svg width="30" id="svg-facabook" height="30" viewBox="0 0 30 30" fill="none" xmlns="http://www.w3.org/2000/svg">
<g clip-path="url(#clip0_7_82)">
<path d="M1.07153 26.7857V3.2143C1.07153 2.64597 1.2973 2.10093 1.69916 1.69907C2.10103 1.29721 2.64606 1.07144 3.21439 1.07144H26.7858C27.3541 1.07144 27.8992 1.29721 28.301 1.69907C28.7028 2.10093 28.9287 2.64597 28.9287 3.2143V26.7857C28.9287 27.354 28.7028 27.8992 28.301 28.3009C27.8992 28.7027 27.3541 28.9286 26.7858 28.9286H20.3572V18.7714H21.8787C22.2254 18.7714 22.5577 18.6337 22.8029 18.3886C23.048 18.1435 23.1858 17.811 23.1858 17.4643V15.8143C23.1858 15.6426 23.152 15.4727 23.0864 15.3141C23.0206 15.1555 22.9244 15.0114 22.8029 14.89C22.6816 14.7686 22.5374 14.6723 22.3788 14.6066C22.2202 14.541 22.0503 14.5072 21.8787 14.5072H20.443V12.4929C20.443 10.6929 21.2572 10.6929 22.0715 10.6929H23.1215C23.294 10.7 23.4659 10.6691 23.6251 10.6025C23.7843 10.5358 23.927 10.435 24.043 10.3072C24.1675 10.1886 24.266 10.0455 24.3325 9.8869C24.3989 9.72828 24.4317 9.55765 24.4287 9.38573V7.80001C24.4345 7.62552 24.4057 7.45161 24.344 7.28823C24.2825 7.12484 24.1895 6.97518 24.07 6.84781C23.9506 6.72046 23.8072 6.61786 23.6482 6.54593C23.4892 6.47399 23.3174 6.43411 23.143 6.42858H20.6787C19.9596 6.40154 19.2433 6.53093 18.5791 6.80778C17.915 7.08462 17.3188 7.50235 16.8319 8.03208C16.3449 8.56184 15.9788 9.19096 15.7587 9.87603C15.5386 10.5611 15.4699 11.2858 15.5572 12V14.5072H14.1858C14.0124 14.5043 13.8401 14.536 13.679 14.6004C13.5179 14.6648 13.3713 14.7607 13.2477 14.8823C13.124 15.004 13.0258 15.1491 12.9588 15.3091C12.8917 15.4691 12.8572 15.6408 12.8572 15.8143V17.4643C12.8572 17.6378 12.8917 17.8095 12.9588 17.9695C13.0258 18.1295 13.124 18.2746 13.2477 18.3962C13.3713 18.5179 13.5179 18.6137 13.679 18.6782C13.8401 18.7426 14.0124 18.7743 14.1858 18.7714H15.5572V28.9286H3.21439C2.64606 28.9286 2.10103 28.7027 1.69916 28.3009C1.2973 27.8992 1.07153 27.354 1.07153 26.7857Z" stroke="black" stroke-linecap="round" stroke-linejoin="round"/>
</g>
<defs>
<clipPath id="clip0_7_82">
<rect width="30" height="30" fill="white"/>
</clipPath>
</defs>
</svg>
