<svg width="30" height="30" viewBox="0 0 30 30" fill="none" xmlns="http://www.w3.org/2000/svg">
<path d="M22.1424 7.80864C21.8465 7.80864 21.6067 7.56879 21.6067 7.27293C21.6067 6.97706 21.8465 6.73721 22.1424 6.73721" stroke="black" stroke-linecap="round" stroke-linejoin="round"/>
<path d="M22.1423 7.80864C22.4383 7.80864 22.678 7.56879 22.678 7.27293C22.678 6.97706 22.4383 6.73721 22.1423 6.73721" stroke="black" stroke-linecap="round" stroke-linejoin="round"/>
<path d="M1.83911 7.35301C1.83911 4.30795 4.30763 1.83942 7.35271 1.83942H22.0557C25.1007 1.83942 27.5693 4.30795 27.5693 7.35301V22.056C27.5693 25.101 25.1007 27.5696 22.0557 27.5696H7.35271C4.30763 27.5696 1.83911 25.101 1.83911 22.056V7.35301Z" stroke="black" stroke-linecap="round" stroke-linejoin="round"/>
<path d="M14.7043 20.1686C17.7221 20.1686 20.1686 17.7221 20.1686 14.7043C20.1686 11.6864 17.7221 9.23999 14.7043 9.23999C11.6864 9.23999 9.23999 11.6864 9.23999 14.7043C9.23999 17.7221 11.6864 20.1686 14.7043 20.1686Z" stroke="black" stroke-linecap="round" stroke-linejoin="round"/>
</svg>
